P1
22 16
0000000000000000000000
0000000000110001000000
0000000001001001000000
0000000010000101000000
0000000100000011000000
0000001000110001000000
0000010000110000100000
0000110000000000110000
0001010000000000101000
0000010000000000100000
0000010000000000100000
0000010001111000100000
0000010001001000100000
0000010001001000100000
0000010001001000100000
0000010001001000100000
